<?xml version="1.0" standalone="no"?>
<!DOCTYPE svg PUBLIC "-//W3C//DTD SVG 20010904//EN"
 "http://www.w3.org/TR/2001/REC-SVG-20010904/DTD/svg10.dtd">
<svg version="1.0" xmlns="http://www.w3.org/2000/svg"
 width="1088.000000pt" height="1088.000000pt" viewBox="0 0 1088.000000 1088.000000"
 preserveAspectRatio="xMidYMid meet">
<metadata>
Created by potrace 1.11, written by Peter Selinger 2001-2013
</metadata>
<g transform="translate(0.000000,1088.000000) scale(0.100000,-0.100000)"
fill="#000000" stroke="none">
<path d="M6065 8584 c-280 -12 -885 -39 -1343 -59 -911 -39 -898 -38 -1001
-104 -60 -39 -138 -121 -173 -181 -52 -90 -60 -141 -56 -371 1 -115 1 -209 -2
-209 -3 1 -93 119 -200 262 -107 144 -221 290 -252 324 -64 68 -159 124 -247
144 -74 17 -211 8 -283 -20 -72 -27 -3 24 -1281 -934 -773 -579 -1089 -821
-1116 -856 -127 -161 -146 -388 -47 -553 54 -89 2656 -3559 2715 -3620 64 -66
160 -119 248 -137 77 -16 216 1 298 38 37 17 261 177 592 424 l532 397 763 31
c420 17 864 35 988 40 l225 9 35 -23 c820 -536 1307 -849 1350 -866 77 -31
225 -39 306 -15 87 25 164 69 222 128 54 56 2455 3737 2498 3831 37 81 50 182
36 269 -16 95 -67 199 -128 264 -37 40 -333 239 -1229 825 -653 427 -1207 783
-1240 796 -73 30 -203 40 -288 23 -81 -17 -190 -75 -245 -130 -27 -27 -141
-194 -272 -398 -124 -194 -228 -352 -232 -352 -5 -1 -8 29 -8 67 -1 37 -7 184
-15 327 -11 214 -17 270 -34 319 -57 160 -185 278 -348 320 -76 20 -124 19
-768 -10z m702 -315 c35 -13 71 -46 89 -82 11 -21 20 -155 39 -569 l24 -541
-22 -37 c-55 -91 -643 -990 -647 -990 -3 0 -22 36 -43 80 -97 206 -394 512
-718 740 -40 27 -78 50 -84 50 -21 0 -224 -181 -351 -313 -304 -314 -452 -594
-430 -811 18 -176 177 -342 347 -362 103 -12 240 35 353 121 26 20 51 34 54
30 10 -9 -17 -124 -48 -202 -30 -78 -106 -207 -139 -237 -17 -16 -21 -31 -21
-83 0 -60 1 -63 23 -59 12 3 105 8 206 11 152 6 182 4 175 -7 -4 -7 -79 -124
-166 -260 -89 -137 -168 -272 -180 -305 -43 -123 -33 -274 26 -392 30 -58 124
-162 164 -182 58 -29 520 -334 514 -340 -4 -4 -137 -12 -297 -18 -159 -6 -432
-18 -605 -26 -933 -42 -885 -42 -947 -4 -18 12 -42 37 -52 58 -20 40 -17 -19
-71 1241 -17 382 -41 956 -55 1275 -14 319 -32 706 -40 860 -18 343 -44 917
-47 1041 -3 83 -1 94 24 131 46 70 54 71 455 89 1408 62 2318 102 2375 103 37
0 79 -4 95 -10z m2238 -709 c468 -304 994 -647 1170 -762 176 -115 331 -223
345 -240 21 -26 25 -42 25 -92 l0 -61 -1019 -1560 c-560 -858 -1111 -1701
-1224 -1874 -194 -296 -208 -315 -250 -334 -30 -13 -57 -18 -83 -14 -30 4
-165 88 -556 345 -285 186 -594 388 -688 447 -355 227 -1121 728 -1143 748
-51 47 -68 128 -38 185 12 24 565 871 1976 3034 243 372 452 685 463 696 40
35 61 43 117 39 55 -3 70 -12 905 -557z m-6230 486 c14 -9 188 -233 385 -496
255 -341 360 -489 364 -512 3 -18 37 -798 76 -1733 47 -1129 75 -1726 85
-1779 7 -43 26 -103 40 -133 33 -66 123 -165 182 -200 24 -14 41 -29 36 -33
-25 -23 -731 -545 -752 -556 -14 -8 -42 -14 -62 -14 -89 0 -21 -85 -1441 1810
-727 971 -1330 1781 -1341 1800 -22 42 -19 115 7 155 17 26 2192 1661 2259
1698 39 22 122 19 162 -7z m2834 -2480 c73 -45 147 -73 225 -84 l45 -7 -83
-129 -83 -129 -40 59 c-55 80 -88 149 -118 240 -25 76 -29 94 -21 94 2 0 36
-20 75 -44z"/>
<path d="M4368 7890 c-205 -189 -280 -355 -204 -454 16 -21 45 -45 65 -53 49
-21 133 -13 172 16 17 13 32 21 35 19 9 -9 -27 -105 -56 -148 -30 -46 -37 -74
-21 -85 5 -3 61 -2 125 1 135 8 139 12 82 91 -32 45 -66 114 -66 134 0 5 17 0
37 -11 99 -53 224 -2 251 103 21 80 -17 165 -126 278 -66 70 -196 179 -213
179 -3 0 -40 -32 -81 -70z"/>
<path d="M8235 7764 c-63 -33 -95 -79 -95 -138 l0 -35 -47 25 c-64 34 -144 31
-196 -9 -51 -39 -74 -105 -59 -164 24 -87 80 -133 175 -142 l62 -6 -31 -22
c-16 -12 -50 -29 -75 -39 -52 -20 -69 -32 -69 -48 0 -15 197 -139 210 -131 5
3 10 39 11 78 1 109 9 119 46 59 35 -57 96 -92 160 -92 54 0 121 37 144 80 39
72 13 176 -55 222 l-34 24 39 22 c66 38 97 132 68 209 -35 94 -170 151 -254
107z"/>
<path d="M8190 6239 c-74 -14 -171 -68 -231 -128 -76 -77 -103 -145 -103 -266
l-1 -90 -65 49 c-77 58 -129 82 -215 98 -127 23 -268 -24 -366 -121 -64 -65
-103 -140 -120 -234 -51 -274 204 -531 508 -515 46 2 83 3 83 1 0 -2 -28 -24
-62 -49 -74 -55 -198 -117 -269 -135 -42 -11 -56 -21 -81 -57 -25 -37 -28 -46
-17 -57 17 -15 495 -325 502 -325 3 0 15 17 27 38 21 34 23 51 24 207 2 135 6
181 20 225 l19 55 17 -50 c30 -89 61 -139 125 -201 111 -109 254 -159 390
-136 143 24 269 111 326 228 25 50 32 80 36 149 12 188 -75 344 -242 432 l-54
27 69 32 c90 42 160 108 193 182 154 342 -143 713 -513 641z"/>
<path d="M7946 3684 c-3 -9 -6 -43 -7 -77 0 -34 -4 -71 -9 -82 l-8 -20 -7 20
c-38 99 -154 151 -249 111 -66 -28 -98 -79 -97 -160 0 -57 34 -116 84 -146 20
-13 26 -20 15 -20 -25 0 -79 -50 -94 -87 -18 -41 -18 -95 0 -136 18 -43 76
-93 127 -108 93 -28 200 39 214 135 7 44 8 45 29 31 63 -45 149 -38 211 16 63
56 72 156 21 224 -33 43 -71 63 -133 72 l-46 6 29 24 c16 12 50 30 76 38 38
13 58 30 58 50 0 6 -189 125 -198 125 -5 0 -13 -7 -16 -16z"/>
<path d="M1007 6552 c-42 -28 -73 -76 -91 -141 l-16 -58 -69 -5 c-116 -9 -180
-57 -195 -148 -27 -168 146 -272 481 -287 l121 -6 11 39 c44 168 57 385 28
477 -20 61 -57 110 -100 131 -47 22 -134 21 -170 -2z"/>
<path d="M2748 6364 c-94 -29 -196 -129 -252 -248 -26 -54 -69 -199 -80 -267
l-6 -36 -93 5 c-183 9 -371 -46 -464 -137 -89 -86 -129 -199 -120 -344 4 -75
10 -99 41 -161 40 -82 106 -154 192 -211 221 -147 642 -235 1125 -235 l167 0
22 83 c79 292 114 536 114 807 0 258 -17 350 -89 496 -67 136 -158 213 -298
250 -66 18 -198 17 -259 -2z"/>
</g>
</svg>
